<?xml version="1.0" encoding="UTF-8" standalone="no"?>
<!-- Created with Inkscape (http://www.inkscape.org/) -->

<svg
   version="1.1"
   id="svg1"
   width="1024"
   height="1024"
   viewBox="0 0 1024 1024"
   sodipodi:docname="icon2.svg"
   inkscape:version="1.4 (e7c3feb100, 2024-10-09)"
   xmlns:inkscape="http://www.inkscape.org/namespaces/inkscape"
   xmlns:sodipodi="http://sodipodi.sourceforge.net/DTD/sodipodi-0.dtd"
   xmlns="http://www.w3.org/2000/svg"
   xmlns:svg="http://www.w3.org/2000/svg">
  <defs
     id="defs1" />
  <sodipodi:namedview
     id="namedview1"
     pagecolor="#ffffff"
     bordercolor="#666666"
     borderopacity="1.0"
     inkscape:showpageshadow="2"
     inkscape:pageopacity="0.0"
     inkscape:pagecheckerboard="0"
     inkscape:deskcolor="#d1d1d1"
     showgrid="false"
     inkscape:zoom="0.98535156"
     inkscape:cx="512"
     inkscape:cy="512"
     inkscape:window-width="2078"
     inkscape:window-height="1211"
     inkscape:window-x="1803"
     inkscape:window-y="872"
     inkscape:window-maximized="0"
     inkscape:current-layer="g1" />
  <g
     inkscape:groupmode="layer"
     inkscape:label="Image"
     id="g1">
    <path
       id="path3929"
       style="fill:#0d4e3d;stroke:none"
       d="M 571.44336 11.925781 C 539.23366 12.032235 506.88344 15.533878 475 22.576172 C 433.75189 31.686889 394.18686 47.677186 358 69.400391 C 345.09781 77.14563 330.17139 85.488586 319.23242 95.898438 C 312.24835 102.54468 338.94919 117.20953 344 122.03906 C 365.05835 142.17492 366.32904 164.93085 370.58984 192 C 372.86014 206.42334 376.71503 219.97028 380.57422 234 C 384.29053 247.51031 386.98803 262.34613 382.79492 276 C 377.64563 292.76746 365.61383 306.35315 368.30078 325 C 370.29336 338.82806 378.51238 351.05334 385.13867 363 C 393.29574 377.7066 400.54288 393.0545 408.25781 408 C 413.11606 417.4115 423.7559 431.82306 418.91016 443 C 408.80341 466.3117 374.30734 451.01331 365.00977 474 C 360.20596 485.87659 373.91818 497.12822 368.99023 508.98438 C 364.11905 520.70393 348.09192 518.44678 339 524 C 342.69962 524.40918 346.45398 523.75098 350 525.22852 C 352.64291 526.32972 354.91833 528.14428 356.98438 530.09375 C 375.25302 547.33203 348.04489 554.83044 347.14453 571 C 346.72912 578.46014 350.6579 585.71173 351.69922 593 C 353.73798 607.26941 348.23636 621.09942 337.99609 630.95898 C 319.45435 648.81152 290.72452 649.2234 267 645.72852 C 251.39235 643.42933 234.33902 637.91217 220 647.08984 C 199.08946 660.47357 186.46642 689.22443 174 710 C 145.11349 758.14001 117.85602 807.25836 90 856 C 70.29676 890.4762 49.921261 924.56427 30.150391 959 C 25.544411 967.0224 11.271586 988.48571 25.044922 995.42578 C 33.206049 999.53796 44.086643 993.50934 51 989.39648 C 70.273788 977.93036 89.190872 965.56025 108 953.34375 C 161.78482 918.41059 216.4933 884.60541 271 850.80859 C 286.08133 841.4574 301.07285 831.9049 316 822.30859 C 321.55487 818.73755 329.17019 811.58143 335.71484 810.38477 C 339.51412 809.69019 343.94583 813.59045 347 815.39648 C 355.76581 820.58007 364.89438 825.20112 374 829.75391 C 404.44376 844.97584 436.78055 858.48505 470 866.3457 C 588.15479 894.30426 711.87274 875.32923 814 808.65625 C 971.91278 705.56409 1054.2829 504.62518 999.2793 322 C 984.98694 274.5459 962.22589 229.88464 932.8457 190 C 847.95621 74.759392 711.01874 11.46448 571.44336 11.925781 z M 506.45312 250.23828 L 825.91797 250.23828 L 833.91797 398.50391 L 810.98633 398.50391 C 806.71966 368.10393 801.38476 345.17082 793.38477 325.4375 C 780.05144 293.43752 753.91809 275.30469 721.38477 275.30469 C 703.78478 275.30469 696.31836 281.17059 696.31836 294.50391 L 696.31836 585.17188 C 696.31836 607.57187 701.11852 610.23828 743.78516 610.23828 L 757.65234 610.23828 L 757.65234 635.30469 L 574.71875 635.30469 L 574.71875 610.23828 L 588.58594 610.23828 C 631.78592 610.23828 636.58594 607.57186 636.58594 585.17188 L 636.58594 294.50391 C 636.58594 281.17059 629.11952 275.30469 611.51953 275.30469 C 575.25289 275.30469 549.65182 295.5706 535.78516 334.50391 C 529.91849 351.57057 525.1181 371.83726 521.38477 398.50391 L 498.45312 398.50391 L 506.45312 250.23828 z M 854.69141 546.22656 L 860.1582 546.22656 L 860.1582 572.62695 L 879.75781 572.62695 L 879.75781 578.35938 L 860.1582 578.35938 L 860.1582 614.75977 C 860.1582 625.29308 861.89208 628.62695 868.02539 628.62695 C 874.55871 628.62695 878.02578 622.49411 878.42578 610.49414 L 884.02539 610.49414 C 884.15872 611.82747 884.1582 612.76055 884.1582 613.56055 C 884.1582 626.22718 877.62575 636.75977 864.42578 636.75977 C 856.55914 636.75977 851.49127 633.69374 849.22461 628.09375 C 847.89128 625.02709 847.625 621.82601 847.625 612.35938 L 847.625 578.35938 L 836.69141 578.35938 L 836.69141 573.16016 C 847.49138 572.36016 853.35808 563.55984 854.69141 546.22656 z M 764.69141 572.62695 L 796.29297 572.62695 L 796.29297 577.42773 L 794.1582 577.42773 C 790.02488 577.42773 788.55859 578.09284 788.55859 579.82617 C 788.55859 580.62617 789.09258 581.82643 789.89258 582.75977 L 800.1582 595.82617 L 808.55859 585.82617 C 810.29192 583.69285 811.22461 581.69271 811.22461 580.35938 C 811.22461 578.49272 809.2246 577.42773 805.22461 577.42773 L 802.69141 577.42773 L 802.69141 572.62695 L 830.29102 572.62695 L 830.29102 577.42773 L 828.29102 577.42773 C 824.82436 577.42773 822.2918 579.29402 819.0918 583.02734 L 803.89258 600.75977 L 820.69141 623.42773 C 824.15807 628.09438 826.69272 629.96094 831.35938 629.96094 L 833.22461 629.96094 L 833.22461 634.75977 L 799.625 634.75977 L 799.625 629.96094 L 801.35938 629.96094 C 806.42602 629.96094 807.625 629.29388 807.625 627.56055 C 807.625 626.62722 806.82591 624.89388 805.89258 623.56055 L 795.75781 610.09375 L 784.55859 623.56055 C 783.89192 624.22722 783.49219 625.42605 783.49219 626.35938 C 783.49219 628.62604 784.29207 629.96094 790.02539 629.96094 L 792.02539 629.96094 L 792.02539 634.75977 L 763.89258 634.75977 L 763.89258 629.96094 L 766.02539 629.96094 C 769.89205 629.96094 772.95809 627.42733 776.69141 623.02734 L 792.02539 605.16016 L 775.75781 584.62695 C 771.35782 579.02696 769.62473 577.82773 764.69141 577.42773 L 764.69141 572.62695 z " />
  </g>
</svg>
